# xmcd
#
# Track frame offsets: 
#        150
#        17748
#        39004
#        56410
#        73600
#        89678
#        108044
#        122289
#        139677
#        156533
#
# Disc length: 2376 seconds
#
# Revision: 3
# Processed by: cddbd v1.5.1PL2 Copyright (c) Steve Scherf et al.
# Submitted via: ExactAudioCopy v0.95a5
#
DISCID=7909460a
DTITLE=潘玮柏 - 高手
DYEAR=2005
DGENRE=R&B
TTITLE0=谁是MVP
TTITLE1=不得不爱
TTITLE2=高手
TTITLE3=禅舞不二
TTITLE4=不要忘了我
TTITLE5=Baby Bye
TTITLE6=决战斗室
TTITLE7=跟我走吧
TTITLE8=一指神功
TTITLE9=爱很容易
EXTD=
EXTT0=
EXTT1=
EXTT2=
EXTT3=
EXTT4=
EXTT5=
EXTT6=
EXTT7=
EXTT8=
EXTT9=
PLAYORDER=
